<?xml version="1.0" encoding="UTF-8"?>
<svg id="Layer_2" data-name="Layer 2" xmlns="http://www.w3.org/2000/svg" viewBox="0 0 200 74.52">
  <defs>
    <style>
      .cls-1 {
        fill: #fcfcfc;
      }

      .cls-1, .cls-2 {
        stroke-width: 0px;
      }

      .cls-2 {
        fill: #31e981;
      }
    </style>
  </defs>
  <g id="Logo">
    <g>
      <path class="cls-1" d="m76.73,55.19c3.16,0,4.83,1.85,5.62,3.99h4.54c-.96-4.51-4.51-7.93-10.19-7.93-6.87,0-10.96,5.46-10.96,11.63s4.09,11.63,10.96,11.63c5.69,0,9.24-3.42,10.19-7.93h-4.54c-.8,2.14-2.46,3.99-5.62,3.99-4.12,0-6.52-3.64-6.52-7.7s2.4-7.7,6.52-7.7Z"/>
      <path class="cls-1" d="m94.69,61.2v-3.74h-4.19v16.62h4.38v-7.38c0-3.36,1.69-5.18,4.63-5.18.42,0,.73,0,1.05.03v-4.15c-.32-.1-.8-.13-1.28-.13-2.62,0-4.12,1.6-4.6,3.93Z"/>
      <path class="cls-1" d="m110.29,57.07c-4.86,0-8.25,3.83-8.25,8.69s3.1,8.69,8.44,8.69c3.87,0,6.84-2.27,7.61-5.56h-3.96c-.54,1.25-1.63,2.21-3.68,2.21-2.56,0-4.06-1.89-4.22-4.38h12.08v-1.05c0-4.83-2.75-8.6-8.02-8.6Zm-3.93,6.62c.38-2.01,1.79-3.52,3.93-3.52s3.55,1.44,3.84,3.52h-7.77Z"/>
      <path class="cls-1" d="m128.86,57.07c-3.93,0-6.68,2.24-7.19,5.53h4.15c.19-1.28,1.28-2.27,3.04-2.27,1.92,0,2.84,1.05,2.84,2.72v.61l-4.03.32c-4.31.32-6.58,2.01-6.58,5.27s2.27,5.21,5.78,5.21c2.49,0,4.31-1.21,4.95-2.65v2.27h4.22v-10.74c0-3.77-2.49-6.26-7.19-6.26Zm2.84,10.61c0,2.4-1.41,3.8-3.64,3.8-1.76,0-2.75-.96-2.75-2.36,0-1.57,1.25-2.14,3.23-2.3l3.16-.26v1.12Z"/>
      <path class="cls-1" d="m145.41,68.32v-7.35h3.99v-3.52h-3.99v-4.38h-4.38v4.38h-2.65v3.52h2.65v7.48c0,3.87,1.82,5.85,5.34,5.85,1.21,0,2.4-.16,3.07-.42v-3.55c-.42.16-1.05.29-1.82.29-1.47,0-2.21-.83-2.21-2.3Z"/>
      <rect class="cls-1" x="152.63" y="50.94" width="4.44" height="4.22"/>
      <rect class="cls-1" x="152.66" y="57.46" width="4.38" height="16.62"/>
      <polygon class="cls-1" points="167.97 69.15 164.01 57.46 159.6 57.46 165.74 74.07 170.21 74.07 176.31 57.46 171.93 57.46 167.97 69.15"/>
      <path class="cls-1" d="m185.68,57.07c-4.86,0-8.25,3.83-8.25,8.69s3.1,8.69,8.44,8.69c3.87,0,6.84-2.27,7.61-5.56h-3.96c-.54,1.25-1.63,2.21-3.68,2.21-2.56,0-4.06-1.89-4.22-4.38h12.08v-1.05c0-4.83-2.75-8.6-8.02-8.6Zm-3.93,6.62c.38-2.01,1.79-3.52,3.93-3.52s3.55,1.44,3.84,3.52h-7.77Z"/>
      <path class="cls-1" d="m71.14,28.54h4.19l4.28,8.5h5.08l-4.47-8.88c3.36-.83,5.5-3.36,5.5-6.58,0-3.96-3.16-6.9-8.21-6.9h-10.83v22.37h4.47v-8.5Zm0-10.16h6.07c2.49,0,4.03,1.37,4.03,3.16,0,1.92-1.53,3.26-4.03,3.26h-6.07v-6.42Z"/>
      <path class="cls-1" d="m99.2,34.77v2.27h4.22v-10.74c0-3.77-2.49-6.26-7.19-6.26-3.93,0-6.68,2.24-7.19,5.53h4.15c.19-1.28,1.28-2.27,3.04-2.27,1.92,0,2.84,1.05,2.84,2.72v.61l-4.03.32c-4.31.32-6.58,2.01-6.58,5.27s2.27,5.21,5.78,5.21c2.49,0,4.31-1.21,4.95-2.65Zm-6.52-2.68c0-1.57,1.25-2.14,3.23-2.3l3.16-.26v1.12c0,2.4-1.41,3.8-3.64,3.8-1.76,0-2.75-.96-2.75-2.36Z"/>
      <path class="cls-1" d="m111.79,27.42c0-2.27,1.09-3.55,3.04-3.55s2.91,1.34,2.91,3.45v9.72h4.38v-9.62c0-2.27,1.09-3.55,3.04-3.55s2.91,1.34,2.91,3.45v9.72h4.38v-10.39c0-3.99-1.95-6.62-5.85-6.62-2.68,0-4.28,1.18-5.24,2.91-.83-1.79-2.43-2.91-4.99-2.91s-3.99,1.21-4.73,3v-2.62h-4.22v16.62h4.38v-9.62Z"/>
      <path class="cls-1" d="m143.97,20.04c-5.02,0-8.53,3.87-8.53,8.69s3.52,8.69,8.53,8.69,8.53-3.87,8.53-8.69-3.52-8.69-8.53-8.69Zm0,13.77c-2.68,0-4.22-2.56-4.22-5.08s1.53-5.05,4.22-5.05,4.22,2.52,4.22,5.05-1.53,5.08-4.22,5.08Z"/>
      <circle class="cls-2" cx="7.41" cy="66.67" r="7.41"/>
      <path class="cls-2" d="m12.64,31.8c-1.34-1.34-3.19-2.17-5.24-2.17-4.09,0-7.41,3.32-7.41,7.41,0,2.05.83,3.9,2.17,5.24l29.63,29.63c1.34,1.34,3.19,2.17,5.24,2.17,4.09,0,7.41-3.32,7.41-7.41,0-2.05-.83-3.9-2.17-5.24L12.64,31.8Z"/>
      <path class="cls-2" d="m12.64,2.17c-1.34-1.34-3.19-2.17-5.24-2.17C3.32,0,0,3.32,0,7.41c0,2.05.83,3.9,2.17,5.24l29.63,29.63c1.34,1.34,3.19,2.17,5.24,2.17,4.09,0,7.41-3.32,7.41-7.41,0-2.05-.83-3.9-2.17-5.24L12.64,2.17Z"/>
      <polygon class="cls-1" points="194.63 52.18 195.54 52.18 195.54 54.51 195.95 54.51 195.95 52.18 196.86 52.18 196.86 51.85 194.63 51.85 194.63 52.18"/>
      <polygon class="cls-1" points="199.45 51.85 198.65 54.01 197.86 51.85 197.32 51.85 197.32 54.51 197.7 54.51 197.7 52.4 198.49 54.51 198.82 54.51 199.6 52.4 199.6 54.51 200 54.51 200 51.85 199.45 51.85"/>
    </g>
  </g>
</svg>