<?xml version="1.0" encoding="UTF-8"?>
<svg xmlns="http://www.w3.org/2000/svg" viewBox="0 0 1350 1350">
  <defs>
    <style>
      .cls-1 {
        fill: #19283f;
      }

      .cls-1, .cls-2 {
        stroke-width: 0px;
      }

      .cls-2 {
        fill: #31e981;
      }
    </style>
  </defs>
  <g id="BG">
    <rect class="cls-1" width="1350" height="1350"/>
  </g>
  <g id="Logomark">
    <g>
      <circle class="cls-2" cx="498.51" cy="1027.99" r="88.25" transform="translate(-580.89 653.59) rotate(-45)"/>
      <path class="cls-2" d="m560.9,612.61c-15.96-15.97-38.02-25.85-62.39-25.85-48.74,0-88.25,39.51-88.25,88.25,0,24.37,9.88,46.43,25.85,62.39l352.99,352.99c15.96,15.97,38.02,25.85,62.39,25.85,48.74,0,88.25-39.51,88.25-88.25,0-24.37-9.88-46.43-25.85-62.39l-352.99-352.99Z"/>
      <path class="cls-2" d="m789.1,737.39c15.96,15.97,38.02,25.85,62.39,25.85,48.74,0,88.25-39.51,88.25-88.25,0-24.37-9.88-46.43-25.85-62.39l-352.99-352.99c-15.96-15.97-38.02-25.85-62.39-25.85-48.74,0-88.25,39.51-88.25,88.25,0,24.37,9.88,46.43,25.85,62.39l352.99,352.99Z"/>
    </g>
  </g>
</svg>